<svg width="604" height="668" viewBox="0 0 604 668" fill="none" xmlns="http://www.w3.org/2000/svg">
<path d="M64.6666 0.799994C33.4666 4.39999 10.5333 23.0667 2.13331 51.8667C0.266644 58.4 -2.25386e-05 86.4 -2.25386e-05 334.667C-2.25386e-05 636.8 -0.533356 615.067 7.73331 631.333C15.6 647.067 36.5333 662.8 54.4 666.533C59.3333 667.6 120.533 668 261.067 668C480.533 668 467.2 668.533 484.267 659.867C494.8 654.533 507.333 642 513.067 631.067C515.467 626.4 518.533 618 519.733 612.133L522 601.6L534.667 593.333C592.533 555.333 617.867 482.533 596 417.067C593.867 410.667 590.533 402.267 588.533 398.4C576.667 374.667 555.2 350.533 533.733 336.667L521.333 328.8V224.667V120.667L460.933 60.2667L400.533 -6.35617e-06L234.667 0.133327C143.333 0.26666 66.9333 0.66666 64.6666 0.799994ZM390.667 57.0667C390.667 89.8667 391.067 99.6 392.667 104.933C395.333 114 404.4 124 413.6 128.133C420.533 131.2 421.867 131.333 463.733 131.733L506.667 132.267V227.333V322.533L501.067 320.533C497.867 319.333 490.133 317.333 483.733 315.867C443.067 306.933 400.533 314.933 365.867 338.133L353.067 346.667H265.333H177.467L175.467 349.6C172.8 353.333 172.8 354.8 175.2 358.133C177.067 360.533 179.867 360.667 257.333 361.333L337.6 362L331.467 369.467C322.533 380.267 312.8 397.333 307.733 410.8L303.333 422.667H241.067C180.4 422.667 178.533 422.8 176 425.333C173.2 428.133 172.667 431.6 174.4 434.133C177.2 438.4 181.467 438.667 240.667 438.667H300.267L299.6 441.6C296.8 452.933 297.467 483.467 300.933 496.933L301.6 500L239.2 500.267L176.8 500.667L174.8 504.133C173.067 507.333 173.067 508 175.067 511.2L177.333 514.667H241.467H305.467L308.4 521.6C315.6 539.333 326.133 556 338.8 569.867L345.6 577.333H261.6H177.467L175.467 580.267C172.667 584.267 172.8 586.133 176 589.333C178.667 592 180.4 592 271.333 592H364L375.467 598.533C410.533 618.667 453.867 623.867 493.067 612.533C499.067 610.8 504.267 609.333 504.667 609.333C504.933 609.333 504.4 612.133 503.333 615.467C499.067 629.733 486 643.467 471.067 649.6L463.333 652.667L265.333 653.067C121.067 653.333 65.2 653.067 59.3333 652C44.4 649.067 29.4666 638.667 22 626C14.2666 612.667 14.6666 629.2 14.6666 333.867C14.6666 66.2666 14.6666 62.8 17.3333 54.2667C23.0666 35.8667 39.2 21.0667 58 16.9333C59.4666 16.5333 134.933 16.2667 225.733 16.1333L390.667 16V57.0667ZM460.4 115.733C438.8 116 424.133 115.6 421.067 114.667C415.2 112.933 408.667 105.867 406.8 99.0667C406 96.1333 405.333 79.6 405.333 60V26L450 70.6667L494.667 115.333L460.4 115.733ZM485.867 331.867C508.933 338 536.933 354.933 552.133 371.733C584.8 408.133 596.667 457.6 583.333 503.067C569.733 549.733 533.2 585.867 486.667 598.533C455.2 607.2 418.933 603.6 390.133 589.2C354.4 571.333 329.733 541.733 317.733 502C314.4 490.933 314.133 488.267 314.133 466C314 437.2 316.133 427.6 327.333 404.667C346.267 365.867 381.2 338.8 424 329.867C437.333 327.067 472.4 328.267 485.867 331.867Z" fill="white"/>
<path d="M68.8 68.2667C67.0667 70.8 66.6667 76 66.6667 98.8C66.6667 125.067 66.8 126.4 69.4667 128.8C72.1333 131.2 76.5333 131.333 200.533 131.733C270.933 131.867 330.533 131.733 332.933 131.333C341.2 129.867 341.333 129.333 341.333 98.1333C341.333 72.2667 341.067 69.6 338.933 67.6C336.667 65.4667 325.333 65.3333 203.6 65.3333H70.8L68.8 68.2667ZM326.667 98V116H204.667H82.6667V98V80H204.667H326.667V98Z" fill="white"/>
<path d="M111.467 190.533L91.3333 210.533L84.4 203.867C80.6667 200.267 76.2667 197.333 74.8 197.333C71.4667 197.333 66.6667 201.733 66.6667 204.8C66.6667 208.133 88 229.333 91.3333 229.333C94.2667 229.333 142.667 181.867 142.667 178.8C142.667 176.4 136.4 170.667 133.867 170.667C132.533 170.667 122.533 179.6 111.467 190.533Z" fill="white"/>
<path d="M176.8 194.8C172.667 198 172.4 201.733 176 205.333C178.667 208 180.4 208 313.067 208C433.867 208 447.733 207.733 450.4 205.867C454.667 202.933 454 196 449.333 193.733C446.667 192.4 417.2 192 313.2 192C180.8 192 180.4 192 176.8 194.8Z" fill="white"/>
<path d="M111.333 268L91.3333 288L84.6666 281.333C76.8 273.6 72.1333 272.667 68.5333 278C67.4666 279.733 66.8 282.4 67.2 283.733C68.4 287.467 88.6666 306.667 91.4666 306.667C94.5333 306.667 142.667 258.667 142.667 255.6C142.667 252.4 137.867 248 134.267 248C132.267 248 125.333 254 111.333 268Z" fill="white"/>
<path d="M176 272C172.8 275.2 172.667 277.067 175.467 281.067L177.467 284H313.867C418 284 450.533 283.6 451.733 282.4C454.133 280 453.6 274 450.933 271.6C448.667 269.467 437.2 269.333 313.6 269.333C180.4 269.333 178.667 269.333 176 272Z" fill="white"/>
<path d="M111.733 344.933L92.2667 364.4L84.6667 357.6C76.5333 350.133 73.4666 349.2 69.3333 353.333C64.8 357.867 66 360.933 77.0666 372.133C85.3333 380.533 88.2667 382.667 91.3333 382.667C94.5333 382.667 98.9333 378.933 117.733 360.267C130.133 348 140.8 336.533 141.467 334.8C143.2 330.4 139.733 325.333 134.933 325.333C132 325.333 127.467 329.2 111.733 344.933Z" fill="white"/>
<path d="M111.333 421.333L91.2 441.333L84.6666 434.667C79.8666 429.867 77.0666 428 74.4 428C70.1333 428 66 433.2 67.2 437.067C68.4 440.8 88.6666 460 91.4666 460C92.9333 460 104.4 449.467 118.4 435.467C140 413.867 142.8 410.533 142 407.867C140.8 404 137.733 401.333 134.133 401.333C132.533 401.333 123.733 409.067 111.333 421.333Z" fill="white"/>
<path d="M112 498C101.333 508.667 92.1333 517.333 91.4667 517.333C90.8 517.333 87.0667 514.267 83.2 510.667C79.3333 506.933 75.6 504 74.9333 504C72.2667 504 66.6667 509.6 66.6667 512.267C66.6667 513.867 70.9333 519.333 76.9333 525.467C91.7333 540.8 90.1333 541.333 119.067 512.267C132 499.2 142.667 487.6 142.667 486.533C142.667 482.8 138.667 478.667 134.933 478.667C132 478.667 127.333 482.667 112 498Z" fill="white"/>
<path d="M130 557.2C127.867 558.533 118.267 567.6 108.8 577.2L91.4667 594.533L84.5333 588C80.6667 584.267 76.2667 581.333 74.8 581.333C71.4667 581.333 66.6667 585.733 66.6667 588.8C66.6667 590 71.6 596 77.6 602.133C85.3333 610.133 89.4667 613.333 91.7333 613.333C94.1333 613.333 100.667 607.733 116.933 591.6C129.067 579.733 139.733 568.4 140.8 566.267C143.067 562.133 141.733 558.4 137.333 556C134.133 554.267 134.667 554.267 130 557.2Z" fill="white"/>
<path d="M464.133 431.2L416.667 478.667L404 466C394.667 456.667 390.533 453.333 388 453.333C383.2 453.333 356 480.533 356 485.333C356 488 362.533 495.333 385.067 517.733C402.8 535.333 415.2 546.667 416.667 546.667C418.267 546.667 442.8 523.067 482.533 483.467C535.2 430.8 545.733 419.733 545.733 416.667C545.733 413.733 542.667 410.133 531.867 399.333C524.267 391.733 516.533 385.2 514.8 384.667C512 383.867 506.4 389.067 464.133 431.2ZM472.4 472.267L416.667 528L395.333 506.667L374 485.333L380.933 478.4L387.867 471.467L401.067 484.4C408.4 491.467 415.467 497.333 416.8 497.333C418.267 497.333 438.267 478.267 466.667 450L514 402.667L521.067 409.733L528 416.667L472.4 472.267Z" fill="white"/>
</svg>
