<svg width="478" height="598" viewBox="0 0 478 598" fill="none" xmlns="http://www.w3.org/2000/svg">
<path d="M164.667 3.60002C157.467 5.86668 154.667 7.73335 147.2 15.2C139.467 22.9334 137.867 25.3334 135.467 33.2C133.867 38.1334 132.667 44.2667 132.667 46.8V51.3334H99.7333C65.0667 51.3334 57.0667 52.2667 44.5333 57.8667C35.0667 62.1334 22.8 71.7334 16.9333 79.6001C4.26666 96.5334 0.666656 109.2 0.666656 137.733C0.666656 156.267 0.79999 156.933 3.99999 160C7.06666 163.2 8.13332 163.333 22 163.333H36.6667V354.4C36.6667 562 36.2667 552.267 44 567.333C48.2667 575.733 58.9333 586.4 67.3333 590.667C82.2667 598.267 76.5333 598 238.933 598C344.667 598 390.667 597.6 395.6 596.533C411.467 593.067 427.733 580.933 434.667 567.333C442.4 552.267 442 562 442 354.4V163.333H456.667C470.533 163.333 471.6 163.2 474.667 160C477.867 156.933 478 156.133 478 138.267C478 116.133 476.533 107.067 470.8 94.6667C462.4 76.5334 448 63.2001 429.2 55.7334C420.133 52.1334 419.6 52.1334 383.067 51.6L346 51.0667V46.6667C346 39.3334 340.933 25.7334 336 19.4667C329.333 11.2 322.533 6.40002 312.8 3.33335C304.8 0.800018 300.933 0.666684 238.8 0.800018C176.667 0.800018 172.933 0.933351 164.667 3.60002ZM310.133 25.0667C317.733 29.0667 323.467 37.2 324.267 45.2L325.067 51.3334H239.333H153.6L154.4 45.2C155.2 37.2 160.933 29.0667 168.533 25.0667L174.4 22H239.333H304.267L310.133 25.0667ZM418.133 74.8001C428.133 77.8667 435.6 82.5334 442.533 90.1334C452.8 101.467 456.533 112.533 456.667 130.933V142H239.333H22V130.933C22.1333 111.467 26.2667 100.267 38 88.5334C45.2 81.3334 54.2667 75.8667 62.5333 73.8667C64.8 73.3334 144.133 72.9334 238.8 72.8001C393.333 72.6667 411.6 72.9334 418.133 74.8001ZM420.4 356.267L420 549.333L416.8 555.333C412.533 563.467 407.867 568.267 400 572.4L393.333 576L242 576.4C68.9333 576.8 81.4667 577.6 69.0667 565.2C57.0667 553.333 58 570.267 58 353.733V163.333H239.333H420.667L420.4 356.267Z" fill="white"/>
<path d="M133.333 242.667L130 245.867V371.867C130 462.667 130.4 498.8 131.467 501.2C133.333 505.333 139.067 507.733 143.867 506.533C151.733 504.667 151.333 511.6 151.333 372.933V245.867L148 242.667C146 240.533 143.2 239.333 140.667 239.333C138.133 239.333 135.333 240.533 133.333 242.667Z" fill="white"/>
<path d="M232 242.667L228.667 245.867V372.533C228.667 442.133 229.067 500.133 229.467 501.333C230.667 504.4 237.733 507.733 241.467 506.8C243.2 506.267 245.867 504.667 247.333 503.067C250 500.133 250 498.933 250 373.067V245.867L246.667 242.667C244.667 240.533 241.867 239.333 239.333 239.333C236.8 239.333 234 240.533 232 242.667Z" fill="white"/>
<path d="M330.667 242.667L327.333 245.867V372.933C327.333 511.6 326.933 504.667 334.8 506.533C339.733 507.867 345.467 505.2 347.2 500.933C348.267 498.4 348.667 460.667 348.4 370.933L348 244.4L344.8 241.867C340.533 238.4 334.533 238.667 330.667 242.667Z" fill="white"/>
</svg>
