<svg width="680" height="683" viewBox="0 0 680 683" fill="none" xmlns="http://www.w3.org/2000/svg">
<path d="M331.667 1.86667C318.733 7.46667 315.4 24.1333 325.4 33.7333C330.333 38.5333 335.133 40 344.867 40C404.067 40 473.267 64.4 522.733 102.667C613.4 172.667 656.467 286.4 634.867 398.667C614.467 504.933 536.467 593.467 433.4 627.2C408.733 635.333 386.733 639.733 361 641.467C332.467 643.333 331.667 643.467 326.333 648.133C315.267 657.867 318.067 675.067 331.933 680.8C342.733 685.333 389.533 680.8 425 671.733C549.4 640 649.133 535.2 673.4 410.667C679 382.133 679.667 375.733 679.667 341.333C679.667 306.933 679 300.533 673.4 272C649.533 149.733 552.6 45.8667 431.133 12.5333C394.467 2.53334 342.867 -3.06666 331.667 1.86667Z" fill="white"/>
<path d="M237 15.8667C215.8 22.5334 212.2 24.1334 207.933 29.2C197.4 41.7334 205.933 61.3334 222.067 61.3334C227 61.3334 265.8 49.0667 270.333 46.1334C274.333 43.4667 277.667 36 277.667 29.7334C277.667 19.6 268.6 10.6667 258.333 10.8C255.4 10.8 245.8 13.0667 237 15.8667Z" fill="white"/>
<path d="M142.867 62.4001C130.2 70.5334 110.067 87.8667 107.667 92.8001C103.133 102.4 107.4 114.667 116.867 119.2C123.533 122.4 129.667 121.867 135.933 117.6C148.467 109.333 169.8 91.4667 171.667 88.0001C176.6 78.5334 172.467 65.7334 163 61.0667C156.2 57.6001 149.8 58.0001 142.867 62.4001Z" fill="white"/>
<path d="M331.133 122.933C327.8 124.667 323.933 127.733 322.467 129.733C319.667 133.467 319.667 134.933 319.267 237.733C319 312.933 319.267 343.467 320.333 347.333C321.667 351.867 334.2 364.933 400.733 431.867C444.2 475.333 482.6 513.333 486.067 516.133C491.8 520.667 493.4 521.333 499.533 521.333C508.867 521.333 514.733 517.467 518.2 509.067C523.4 496.533 526.733 500.533 438.2 412L359 332.667V233.867V135.067L356.067 130.667C349.267 120.8 340.467 118.133 331.133 122.933Z" fill="white"/>
<path d="M66.2 141.867C63.9333 142.8 60.3333 145.867 58.0667 148.667C51.5333 156.533 36.4667 182.533 35.5333 187.6C32.8667 202 45.9333 214 60.2 210.4C66.8667 208.667 68.8667 206.4 79.8 188.667C95.1333 163.467 96.0667 160.667 91.5333 151.2C87.2667 142.133 75.2667 137.733 66.2 141.867Z" fill="white"/>
<path d="M21 246C10.3333 249.867 7.93331 255.067 2.33331 286.667C-0.200022 301.2 -0.200022 303.733 2.86664 309.333C8.19998 319.333 21.1333 323.2 30.6 317.333C37 313.467 38.7333 309.733 41.5333 294.533C43 286.933 44.7333 278 45.5333 274.667C47.8 265.2 47.2666 259.467 44.0666 254.667C37.9333 245.733 30.0666 242.8 21 246Z" fill="white"/>
<path d="M11 361.2C0.333299 366.933 -1.2667 374.133 2.99997 399.333C7.26663 425.067 12.0666 432.933 24.4666 434.267C35.4 435.333 45.6666 426.533 45.6666 416C45.6666 406.4 39 371.467 36.4666 368C30.0666 359.067 19.8 356.4 11 361.2Z" fill="white"/>
<path d="M44.6 470.267C38.0667 473.467 33.6667 480.667 33.6667 488.133C33.6667 493.2 35.1333 496.8 43.1333 510.667C48.2 519.733 53.9333 529.067 55.8 531.467C60.2 537.067 68.4667 540.4 75.2667 539.333C85.5333 537.6 93.9333 524.8 91.1333 515.2C89.9333 510.933 73 481.6 68.2 475.467C62.6 468.4 52.8667 466.133 44.6 470.267Z" fill="white"/>
<path d="M113.933 561.467C104.467 566.267 100.6 577.067 104.867 587.2C106.733 591.6 127.4 610.133 138.867 617.467C150.333 624.8 163.267 621.867 169 610.533C171.533 605.733 171.533 598.267 169 593.333C167.267 590 150.2 574.933 135 563.6C128.2 558.4 121.267 557.733 113.933 561.467Z" fill="white"/>
<path d="M210.333 622.533C203.267 626.933 201.133 630.267 200.733 638.4C199.8 652.267 203.933 655.867 232.067 665.2C250.467 671.333 258.733 672.133 265.267 668C276.2 661.467 277 642 266.6 635.467C261.667 632.267 223.8 620 218.867 620C216.333 620 212.6 621.067 210.333 622.533Z" fill="white"/>
</svg>
