<svg width="473" height="499" viewBox="0 0 473 499" fill="none" xmlns="http://www.w3.org/2000/svg">
<path d="M23.1333 2.26672C19.6666 3.46672 14.4666 7.06672 11 10.5334C-0.600032 22.1334 0.333302 1.46672 0.333302 249.333C0.333302 494.133 -0.333365 475.6 9.66664 487.067C12.7333 490.533 17.6666 494.133 21.5333 495.867L28.0666 498.667H191.8H355.667L413.933 440.4L472.333 382L472.067 204L471.667 26L467.667 18.8C463.533 11.3334 455.933 4.66672 447.933 1.73338C444.733 0.533383 391.8 0.266717 236.333 0.266717C51.4 0.266717 28.3333 0.40005 23.1333 2.26672ZM447.4 17.3334C450.067 19.0667 453.4 22.8 454.867 25.4667C457.667 30.4 457.667 31.3334 457.667 201.2V372H415.933C367.4 372 365.133 372.4 354.867 382.667C344.867 392.667 344.333 395.733 344.333 444.267V485.333L187.4 485.067C31.6666 484.667 30.3333 484.667 25.6666 481.867C23.1333 480.4 19.6666 477.2 18.0666 474.667L15 470.267V249.733C15 13.2 14.6 25.7334 21.4 19.6C28.4666 13.2 21.2666 13.4667 238.467 13.7334L442.467 14L447.4 17.3334ZM403.667 430.667L359.667 474.667L359.267 438.533C358.867 398 359.267 396 368.2 389.867L373 386.667H410.333H447.667L403.667 430.667Z" fill="white"/>
<path d="M42.4666 64.8C40.5999 66.5334 40.3333 71.3334 40.3333 96.1334C40.3333 123.6 40.4666 125.467 42.9999 128C45.5333 130.533 47.3999 130.667 74.7333 130.667C101.267 130.667 104.067 130.4 106.067 128.267C108.067 126.133 108.333 121.867 108.333 95.8667C108.333 74.2667 107.933 65.4667 106.733 64.2667C105.533 63.0667 96.5999 62.6667 74.8666 62.6667C48.9999 62.6667 44.1999 62.9334 42.4666 64.8ZM94.9999 96.6667V116H74.9999H54.9999V96.6667V77.3334H74.9999H94.9999V96.6667Z" fill="white"/>
<path d="M141.133 76.8C138.333 79.6 138.467 84.4 141.4 87.0667C143.667 89.2 154.867 89.3334 274.733 89.3334C391.8 89.3334 405.667 89.0667 407.533 87.2C410.067 84.8 410.333 78.5334 408.067 76.2667C406.867 75.0667 375.4 74.6667 274.867 74.6667C157 74.6667 143 74.9334 141.133 76.8Z" fill="white"/>
<path d="M141.133 106.133C138.067 109.067 138.467 114.133 141.933 116.533C144.6 118.4 152.733 118.667 203.933 118.667C261.267 118.667 263.133 118.533 265.667 116C268.867 112.8 269 110.933 266.2 106.933L264.2 104H203.667C150.467 104 143 104.267 141.133 106.133Z" fill="white"/>
<path d="M302.467 106.133C299.667 108.933 299.8 113.733 302.733 116.4C304.867 118.4 309.533 118.667 340.6 118.667C360.2 118.667 377.133 118.267 378.333 117.867C381.933 116.4 383.4 110.8 381 107.2L379 104H341.667C309.667 104 304.2 104.267 302.467 106.133Z" fill="white"/>
<path d="M45.6666 164.933C40.7333 166.8 40.3333 169.2 40.3333 198.667C40.3333 221.467 40.7333 228 42.1999 230.133C43.9333 232.533 46.1999 232.667 72.9999 233.067C97.5333 233.467 102.333 233.2 105.133 231.333L108.333 229.333V198.8C108.333 172.133 108.067 168.133 106.067 166.533C104.467 165.067 97.3999 164.667 75.7999 164.4C60.3333 164.267 46.7333 164.533 45.6666 164.933ZM94.9999 198.667V218.667H74.9999H54.9999V198.667V178.667H74.9999H94.9999V198.667Z" fill="white"/>
<path d="M141.933 178.133C138.467 180.533 138.067 185.6 141.133 188.533C143 190.4 157 190.667 274.867 190.667C375.4 190.667 406.867 190.267 408.067 189.067C410.467 186.667 409.933 180.667 407.267 178.267C405 176.133 393.933 176 274.867 176C159.4 176 144.6 176.267 141.933 178.133Z" fill="white"/>
<path d="M141.933 207.467C138.467 209.867 138.067 214.933 141.133 217.867C143 219.733 150.467 220 203.667 220H264.2L266.2 217.067C269 213.067 268.867 211.2 265.667 208C263.133 205.467 261.267 205.333 203.933 205.333C152.733 205.333 144.6 205.6 141.933 207.467Z" fill="white"/>
<path d="M302.6 207.733C299.8 210.8 299.667 215.2 302.467 217.867C304.2 219.733 309.667 220 341.667 220H379L381 216.8C383.4 213.2 381.933 207.6 378.333 206.133C377.133 205.733 360.067 205.333 340.467 205.333C307.533 205.333 304.6 205.467 302.6 207.733Z" fill="white"/>
<path d="M42.5999 269.067C40.5999 271.2 40.3333 275.467 40.3333 300.933C40.3333 327.6 40.5999 330.4 42.7333 332.4C44.8666 334.4 49.1333 334.667 74.7333 334.667C99.6666 334.667 104.467 334.4 106.2 332.533C109.4 329.467 109.4 271.867 106.2 268.8C104.467 266.933 99.6666 266.667 74.4666 266.667C47.3999 266.667 44.5999 266.933 42.5999 269.067ZM94.9999 300.667V320H74.9999H54.9999V300.667V281.333H74.9999H94.9999V300.667Z" fill="white"/>
<path d="M141.267 281.067C138.2 284.533 138.467 288.8 141.933 291.2C144.6 293.067 159.4 293.333 275.267 293.333C391.8 293.333 405.667 293.067 407.533 291.2C410.6 288.267 410.2 281.733 407.133 280C405.4 279.067 361.4 278.667 273.933 278.667C149.133 278.667 143.267 278.8 141.267 281.067Z" fill="white"/>
<path d="M141.133 310.133C138.067 313.067 138.467 318.133 141.933 320.533C144.6 322.4 152.733 322.667 203.933 322.667C261.267 322.667 263.133 322.533 265.667 320C269 316.667 269.133 313.067 265.933 310.267C263.667 308.267 257.4 308 203.267 308C150.467 308 143 308.267 141.133 310.133Z" fill="white"/>
<path d="M301.933 309.6C299.267 312.267 300.067 318.267 303.267 320.533C305.8 322.4 311.8 322.667 341.133 322.667C360.333 322.667 377.133 322.267 378.333 321.867C381.933 320.4 383.4 314.8 381 311.2L379 308H341.267C313.667 308 303.133 308.4 301.933 309.6Z" fill="white"/>
<path d="M42.9999 370.667C40.4666 373.2 40.3333 375.067 40.3333 402.533C40.3333 427.333 40.5999 432.133 42.4666 433.867C44.1999 435.733 48.9999 436 74.8666 436C96.5999 436 105.533 435.6 106.733 434.4C107.933 433.2 108.333 424.267 108.333 402.533C108.333 372.667 108.333 372.133 105.4 370.133C102.867 368.4 97.5333 368 74.0666 368C47.3999 368 45.5333 368.133 42.9999 370.667ZM94.7333 402.267L94.3333 422L74.7333 422.4L54.9999 422.8V402.667V382.667H74.9999H95.1333L94.7333 402.267Z" fill="white"/>
<path d="M143 381.733C139.267 383.6 138.067 387.867 140.333 391.867C141.8 394.667 142.333 394.667 230.733 394.667C298.2 394.667 320.2 394.267 321.4 393.067C324.067 390.4 323.267 384.4 320.067 382.133C317.4 380.267 306.867 380 231.667 380C165.667 380 145.533 380.4 143 381.733Z" fill="white"/>
<path d="M141.267 411.733C138.467 414.8 138.333 419.2 141.133 421.867C143 423.733 150.467 424 203.667 424H264.2L266.2 421.067C269 417.067 268.867 415.2 265.667 412C263.133 409.467 261.267 409.333 203.267 409.333C147 409.333 143.267 409.467 141.267 411.733Z" fill="white"/>
<path d="M288.333 412C285.133 415.2 285 417.067 287.8 421.067C289.667 423.867 290.733 424 307 424C325.533 424 328.333 423.067 328.333 416.8C328.333 410.533 324.867 409.333 307.267 409.333C292.733 409.333 290.733 409.6 288.333 412Z" fill="white"/>
</svg>
